HIERARCHY
ROOT Hips
{
	OFFSET	0.00	0.00	0.00
	CHANNELS 6 Xposition Yposition Zposition Zrotation Xrotation Yrotation
	JOINT Spine
	{
		OFFSET	 0.00	0.01	 0.00
		CHANNELS 3 Zrotation Xrotation Yrotation
		JOINT Spine1
		{
			OFFSET	 0.00	 2.45913012437421	 0.00
			CHANNELS 3 Zrotation Xrotation Yrotation
            JOINT Neck
            {
                OFFSET	 0.00	 2.48462964506057	 0.00
                CHANNELS 3 Zrotation Xrotation Yrotation
                JOINT Head
                {
                    OFFSET	 0.00	 0.927524780924562	 0.00
                    CHANNELS 3 Zrotation Xrotation Yrotation
                    End Site 
                    {
                        OFFSET	 0.00	 1.14999962169752	 0.00
                    }
                }
            }
			JOINT LeftShoulder
			{
				OFFSET	 0.00	 2.48462964506057	 0.00
				CHANNELS 3 Zrotation Xrotation Yrotation
				JOINT LeftUpArm
				{
					OFFSET	 0.00	 1.24881979654096	 0.00
					CHANNELS 3 Zrotation Xrotation Yrotation
					JOINT LeftForeArm
					{
						OFFSET	 0.00	2.59758046908119	 0.00
						CHANNELS 3 Zrotation Xrotation Yrotation
						JOINT LeftHand
						{
							OFFSET	 0.00	2.45542024364365	 0.00
							CHANNELS 3 Zrotation Xrotation Yrotation
							JOINT LeftHandThumb 
							{
								OFFSET	 0.00	0.00	 0.00
								CHANNELS 3 Zrotation Xrotation Yrotation
								End Site
								{
									OFFSET	 0.00	0.00	1.00000003353624
								}
							}
							JOINT L_Wrist_End 
							{
								OFFSET	 0.00	0.99999967115358	 0.00
								CHANNELS 3 Zrotation Xrotation Yrotation
								End Site 
								{
									OFFSET	 0.00	 0.00	 0.00
								}
							}
						}
					}
				}
			}
			JOINT RightShoulder
			{
				OFFSET	 0.00	 2.48462964506057	 0.00
				CHANNELS 3 Zrotation Xrotation Yrotation
				JOINT RightUpArm
				{
					OFFSET	 0.00	 1.24881979654096	 0.00
					CHANNELS 3 Zrotation Xrotation Yrotation
					JOINT RightForeArm
					{
						OFFSET	 0.00	2.59758046908119	 0.00
						CHANNELS 3 Zrotation Xrotation Yrotation
						JOINT RightHand
						{
							OFFSET	 0.00	2.45542024364365	 0.00
							CHANNELS 3 Zrotation Xrotation Yrotation
							JOINT RightHandThumb 
							{
								OFFSET	 0.00	0.00	 0.00
								CHANNELS 3 Zrotation Xrotation Yrotation
								End Site
								{
									OFFSET	 0.00	0.00	1.00000003353624
								}
							}
							JOINT R_Wrist_End 
							{
								OFFSET	 0.00	0.99999967115358	 0.00
								CHANNELS 3 Zrotation Xrotation Yrotation
								End Site 
								{
									OFFSET	 0.00	 0.00	 0.00
								}
							}
						}
					}
				}
			}
		}
	}
	JOINT LeftUpLeg
	{
		OFFSET	 1.2719394002717	 0.00	 0.00
		CHANNELS 3 Zrotation Xrotation Yrotation
		JOINT LeftLowLeg
		{
			OFFSET	 0.00	-4.3429100912261	 0.00
			CHANNELS 3 Zrotation Xrotation Yrotation
			JOINT LeftFoot
			{
				OFFSET	 0.00	-4.48767017425826	 0.00
				CHANNELS 3 Zrotation Xrotation Yrotation
				JOINT LeftToeBase
                {
                    OFFSET	 0.00	0.00	 1.51507020887566
                    CHANNELS 3 Zrotation Xrotation Yrotation
                    End Site 
                    {
                        OFFSET	 0.00	0.00	 0.75000010571191
                    }
                }
			}
		}
	}
	JOINT RightUpLeg
	{
		OFFSET	 -1.2719393604653	 0.00	 0.00
		CHANNELS 3 Zrotation Xrotation Yrotation
		JOINT RightLowLeg
		{
			OFFSET	 0.00	-4.3429100912261	 0.00
			CHANNELS 3 Zrotation Xrotation Yrotation
			JOINT RightFoot
			{
				OFFSET	 0.00	-4.48767017425826	 0.00
				CHANNELS 3 Zrotation Xrotation Yrotation
				JOINT RightToeBase
                {
                    OFFSET	 0.00	0.00	 1.51507020887566
                    CHANNELS 3 Zrotation Xrotation Yrotation
                    End Site 
                    {
                        OFFSET	 0.00	0.00	 0.749999965609858
                    }
                }   
			}
		}
	}
}
MOTION 
Frames:	6 
Frame Time: 0.02 
  -2.5432200622558594 -2.2292100524902345 9.50833984375 -143.889 66.9779 174.732 9.31376 -6.19727 0.489481 -4.91791 4.56035 -1.9906 4.47774 10.4069 -11.7584 133.756 -74.1701 870.474 -104.219696 2.58751 5.60133 49.3692 40.4035 -412.945 0.0 80.2923 0.0 19.948 -2.61966 32.2171 0.0 0.0 0.0 0.0 0.0 0.0 104.1958 -6.39629 3.27351 -51.419 48.1983 -290.714 0.0 91.4764 0.0 -4.12314 -9.74796 13.5225 0.0 0.0 0.0 0.0 0.0 0.0 0.849862 -21.8958 -17.052 0.0 4.75934 0.0 -1.99098 2.4666004 15.0985 0.0 -10.74353 0.0 8.40125 -19.2372 377.84 0.0 -1.32379 0.0 3.47127 10.94131 -19.7283 0.0 -16.51832 0.0 
  -2.5182699584960937 -2.266710052490234 9.511480102539062 -144.012 67.4382 174.671 9.25318 -6.62879 0.380356 -4.38125 4.36049 -1.98737 5.58258 11.5205 -12.5425 136.252 -74.6146 871.339 -103.9088 2.45997 5.20466 40.5331 40.214 -411.549 0.0 82.0954 0.0 22.0895 -3.55459 33.2435 0.0 0.0 0.0 0.0 0.0 0.0 105.081 -7.1345 -0.175065 -49.4949 46.4469 -290.702 0.0 91.5133 0.0 -7.36925 -12.2 13.4805 0.0 0.0 0.0 0.0 0.0 0.0 0.767507 -21.2624 -17.0157 0.0 5.04272 0.0 -1.91439 2.2223997 15.2097 0.0 -10.806789 0.0 8.29183 -18.5167 377.743 0.0 -1.29999 0.0 3.64873 10.71804 -19.4325 0.0 -16.54196 0.0 
  -2.4915699768066406 -2.3056500244140623 9.514219970703126 -144.11 68.0193 174.563 9.25747 -6.90184 0.229081 -4.16842 4.29539 -2.08678 7.55184 11.8727 -13.6336 135.914 -75.1802 870.123 -103.4814 1.72823 4.52447 32.1016 40.2468 -410.663 0.0 84.2457 0.0 23.1549 -4.03354 32.3226 0.0 0.0 0.0 0.0 0.0 0.0 104.8378 -7.49841 1.31749 -41.2178 48.4363 -296.257 0.0 92.6383 0.0 -9.61787 -13.8747 12.7829 0.0 0.0 0.0 0.0 0.0 0.0 0.685615 -20.5003 -17.0507 0.0 5.34246 0.0 -1.89221 1.9421997 15.3723 0.0 -10.84893 0.0 8.16736 -17.6412 377.647 0.0 -1.31759 0.0 3.85015 10.46089 -19.1112 0.0 -16.42342 0.0 
  -2.4630000305175783 -2.344739990234375 9.516110229492188 -144.278 68.4675 174.533 9.27688 -7.23915 0.126183 -3.94266 4.05624 -2.14672 9.40149 12.4013 -14.7099 135.961 -75.7222 869.299 -102.9966 1.11149 3.96064 23.3531 40.1744 -409.821 0.0 86.9345 0.0 25.6402 -5.67675 32.0753 0.0 0.0 0.0 0.0 0.0 0.0 104.8785 -7.69625 0.812968 -34.338 48.4507 -299.979 0.0 93.8538 0.0 -12.2194 -15.4734 11.0031 0.0 0.0 0.0 0.0 0.0 0.0 0.560402 -19.9168 -17.0204 0.0 5.74344 0.0 -1.89084 1.6049004 15.4447 0.0 -10.89208 0.0 8.03055 -16.9217 377.643 0.0 -1.28507 0.0 4.05876 10.17639 -18.8835 0.0 -16.42366 0.0 
  -2.433509979248047 -2.3847900390625 9.517979736328124 -144.415 68.9036 174.464 9.31142 -7.5584 0.0749286 -3.67304 3.69529 -2.17039 11.0019 13.1638 -15.6282 136.566 -76.2271 868.962 -102.6228 0.83972 3.67197 14.6626 39.3372 -409.022 0.0 89.9998 0.0 27.8819 -6.81133 27.9829 0.0 0.0 0.0 0.0 0.0 0.0 104.7857 -7.44914 1.28455 -26.0295 48.1817 -305.521 0.0 95.6594 0.0 -15.5831 -17.8158 10.3047 0.0 0.0 0.0 0.0 0.0 0.0 0.431034 -19.3653 -17.0838 0.0 6.21168 0.0 -1.86124 1.2502003 15.6286 0.0 -10.94869 0.0 7.91424 -16.2264 377.63 0.0 -1.21202 0.0 4.24508 9.88442 -18.6345 0.0 -16.43011 0.0 
  -2.4036900329589845 -2.4234100341796876 9.51781005859375 -144.584 69.307 174.384 9.34453 -8.0497 0.0834615 -3.38171 3.54815 -2.07229 12.5844 13.9942 -16.6827 137.216 -76.7109 868.968 -102.8006 1.44734 3.88267 7.6951 37.0214 -408.883 0.0 93.1416 0.0 30.8126 -7.56 25.1952 0.0 0.0 0.0 0.0 0.0 0.0 105.2874 -7.27411 0.6892 -20.2358 47.0742 -308.856 0.0 97.0078 0.0 -19.8684 -18.6343 7.50026 0.0 0.0 0.0 0.0 0.0 0.0 0.290395 -18.8675 -17.1143 0.0 6.71685 0.0 -1.80908 0.84490013 15.8248 0.0 -10.9837 0.0 7.80873 -15.5332 377.429 0.0 -1.20684 0.0 4.25995 9.64237 -18.2643 0.0 -16.44829 0.0 
